<svg viewBox="0 0 60 60" width="60" height="60" xmlns="http://www.w3.org/2000/svg">
  <rect width="60" height="60" rx="14" ry="14" fill="#fedb35"></rect>
  <g fill="#000" transform="matrix(0.002105, 0, 0, 0.002105, 4.997216, 5.576546)">
    <path id="p17MxDGHdV" d="M10215 20189 c-1028 -59 -2247 -279 -3338 -603 -389 -116 -894 -297 -1132 -406 -20 -10 -193 -87 -364 -162 l-93 -42 -22 30 c-79 109 -237 296 -338 399 -183 189 -340 291 -553 360 -222 72 -378 81 -551 34 -81 -22 -457 -160 -521 -191 -18 -9 -40 0 -140 55 -133 75 -255 119 -393 143 -76 13 -133 15 -290 10 -205 -6 -258 -14 -375 -61 -130 -52 -214 -120 -475 -386 -96 -97 -179 -174 -199 -182 -37 -16 -45 -14 -186 28 -71 21 -119 28 -225 32 -285 11 -483 -60 -666 -241 -101 -100 -145 -168 -240 -366 -41 -85 -82 -168 -91 -185 -13 -23 -17 -66 -21 -188 -5 -164 2 -211 46 -337 28 -82 148 -325 192 -391 181 -268 474 -521 789 -679 344 -172 817 -310 1068 -310 l71 0 -107 -197 c-59 -109 -202 -369 -318 -578 -256 -463 -426 -786 -510 -965 -54 -116 -63 -143 -63 -191 l0 -57 83 -82 c84 -83 172 -153 477 -375 436 -318 595 -476 718 -714 73 -141 158 -386 207 -601 7 -30 20 -82 28 -115 97 -381 208 -1125 237 -1590 15 -232 60 -700 121 -1240 28 -247 54 -486 59 -530 25 -228 30 -272 35 -300 10 -61 65 -559 85 -761 33 -351 43 -607 36 -919 -17 -769 -48 -1002 -246 -1845 -132 -562 -276 -1247 -315 -1495 -47 -298 -85 -712 -85 -923 l0 -62 73 0 c214 0 478 71 1237 331 337 116 787 281 895 328 11 5 45 19 75 31 182 74 247 103 455 204 127 62 277 139 335 171 58 32 130 72 160 88 138 76 435 265 625 398 487 339 1032 850 1460 1369 215 260 365 471 438 615 19 39 46 80 59 93 l25 22 99 -30 c278 -86 913 -259 1105 -300 703 -153 1085 -209 1699 -251 391 -27 1137 -10 1520 35 69 8 168 20 220 26 178 20 471 71 720 125 85 18 166 36 180 38 79 17 407 104 605 162 283 83 259 76 440 125 182 49 317 80 348 80 30 0 213 -189 312 -325 17 -22 32 -42 35 -45 3 -3 41 -50 84 -105 141 -177 256 -305 456 -509 489 -497 935 -854 1415 -1135 483 -283 1207 -640 1692 -836 76 -31 147 -60 158 -65 43 -18 247 -90 365 -128 644 -208 1081 -314 1235 -300 l40 3 3 129 c2 88 -4 178 -18 285 -44 335 -73 496 -182 1041 -126 629 -130 649 -289 1335 -17 72 -34 148 -38 170 -5 22 -32 144 -61 270 l-53 230 6 680 c3 374 11 761 17 860 25 436 73 1008 106 1280 9 72 20 166 25 210 38 340 146 959 218 1242 19 75 165 516 189 573 6 14 43 117 83 230 145 417 324 923 338 955 4 11 18 45 29 75 142 376 182 454 292 557 109 104 433 281 855 467 333 147 482 223 531 270 42 40 44 45 44 98 0 31 -6 73 -14 95 -31 88 -317 540 -1118 1766 -220 338 -307 473 -310 486 -3 12 21 20 372 132 160 50 343 118 439 160 63 29 258 127 295 150 17 10 38 22 46 26 64 29 260 185 356 285 141 145 214 257 341 528 l78 165 0 225 c0 218 -1 228 -28 312 -77 242 -155 386 -271 495 -177 169 -398 235 -735 220 -119 -6 -176 -12 -356 -42 -61 -10 -95 20 -201 175 -160 233 -298 344 -505 403 -134 39 -254 50 -491 44 -280 -6 -333 -21 -548 -152 l-94 -57 -51 15 c-27 8 -117 41 -200 72 -82 31 -201 72 -263 91 -222 67 -451 65 -644 -6 -146 -53 -360 -199 -537 -366 -122 -115 -166 -171 -185 -238 -9 -30 -30 -68 -46 -86 -29 -31 -34 -32 -80 -27 -53 6 -361 107 -557 183 -522 200 -1081 372 -1655 509 -260 62 -932 191 -1273 245 -104 17 -395 61 -435 67 -19 2 -114 15 -210 28 -392 55 -666 79 -1090 96 -335 13 -2878 20 -3085 8z"></path>
  </g>
</svg>