<svg version="1.0" xmlns="http://www.w3.org/2000/svg" viewBox="0 0 1088 1088"
    preserveAspectRatio="xMidYMid meet">
    <style>
        text {
            text-shadow: 1px 1px 0px black;
            font-family: Futura, 'Trebuchet MS', Arial, sans-serif;
            font-weight: 700;
        }
    </style>
    <circle cx="544" cy="501" r="488" fill="#FEDB35" />
    <text x="750" y="520" font-size="280" alignment-baseline="middle" text-anchor="middle">
        JS
    </text>
    <g transform="translate(0.000000,1088.000000) scale(0.100000,-0.100000)">
        <path d="M5080 10855 c-323 -21 -483 -43 -795 -111 -537 -117 -1029 -313
        -1513 -601 -141 -84 -144 -85 -192 -79 -119 16 -339 107 -540 224 -52 31 -119
        69 -148 86 -228 133 -329 185 -452 232 -65 24 -89 29 -177 29 -113 0 -136 -10
        -180 -75 -21 -29 -23 -45 -23 -144 0 -168 33 -283 173 -606 51 -120 239 -505
        291 -600 17 -30 39 -72 48 -92 l18 -38 -58 -67 c-75 -90 -200 -258 -264 -358
        -28 -44 -70 -109 -93 -145 -23 -36 -45 -72 -48 -80 -4 -8 -23 -42 -42 -75
        -300 -514 -514 -1191 -591 -1875 -25 -215 -30 -756 -9 -965 56 -582 181 -1076
        401 -1585 47 -110 207 -420 268 -519 61 -100 57 -88 180 -566 117 -451 137
        -907 54 -1245 -26 -110 -36 -127 -120 -218 -151 -162 -196 -365 -133 -597 9
        -33 20 -62 25 -63 6 -2 10 -14 10 -27 0 -16 14 -34 42 -56 24 -18 65 -53 92
        -76 l48 -43 125 0 c265 0 513 32 618 80 11 5 54 24 96 43 134 60 231 186 264
        342 19 89 19 201 0 440 -25 328 -25 329 -12 313 7 -9 44 -34 82 -58 39 -23
        108 -66 155 -95 270 -172 655 -360 941 -461 57 -20 107 -41 110 -46 3 -5 9
        -49 12 -96 9 -118 42 -267 71 -316 24 -41 261 -280 326 -328 27 -20 114 -46
        394 -118 392 -100 381 -99 496 -54 102 41 85 25 194 175 44 61 106 239 106
        304 0 22 -6 65 -14 95 -8 30 -12 58 -10 62 3 5 65 8 138 8 146 0 273 10 501
        40 153 20 207 30 420 77 383 83 878 250 1135 384 106 54 199 89 241 89 15 0
        31 5 34 10 4 6 16 8 27 4 11 -3 34 1 52 9 38 18 125 39 135 32 4 -2 39 7 77
        21 38 14 89 32 114 39 25 7 59 18 75 25 27 10 273 127 317 151 55 29 217 115
        243 129 51 27 207 130 268 176 31 24 59 44 62 44 7 0 93 66 160 124 168 145
        271 257 443 484 123 162 212 350 243 517 17 89 15 292 -4 313 -8 9 -15 31 -15
        49 -1 73 -67 144 -191 206 l-85 42 -140 -1 c-164 0 -223 -13 -361 -80 -86 -41
        -220 -138 -249 -179 -7 -11 -55 -96 -106 -190 -145 -265 -217 -362 -401 -539
        -109 -106 -300 -258 -376 -301 -15 -8 -57 -34 -91 -56 -230 -145 -587 -291
        -846 -344 -112 -23 -289 -45 -421 -51 -227 -12 -517 36 -720 119 -140 57 -239
        128 -390 281 -141 142 -191 175 -302 197 -119 24 -236 -25 -292 -123 -84 -146
        -80 -434 8 -606 101 -199 284 -369 515 -481 258 -124 610 -191 943 -179 73 3
        133 4 133 3 0 -4 -192 -63 -260 -79 -64 -16 -99 -22 -377 -71 -335 -59 -780
        -78 -938 -41 -44 10 -127 20 -185 22 l-105 4 -27 82 c-18 51 -28 103 -28 138
        1 129 52 495 110 786 22 109 58 305 80 434 22 129 60 350 85 490 146 831 213
        1596 187 2130 -27 532 -98 875 -237 1137 -70 132 -125 213 -193 285 -59 62
        -59 63 -27 163 7 22 25 81 39 130 95 322 108 348 281 615 100 154 182 354 226
        555 18 78 22 146 29 505 9 461 17 542 76 745 27 90 58 164 126 295 158 303
        164 316 220 465 64 172 118 421 118 544 l0 49 48 -5 c136 -11 522 -74 677
        -109 188 -43 426 -116 600 -185 72 -28 159 -62 195 -76 81 -30 454 -217 495
        -248 17 -12 57 -37 90 -55 33 -18 80 -47 104 -64 24 -17 51 -35 60 -41 129
        -79 335 -243 526 -419 149 -137 168 -157 271 -267 501 -535 846 -1135 1053
        -1830 145 -492 201 -861 201 -1338 0 -574 -69 -1001 -246 -1531 -67 -199 -133
        -370 -179 -460 -20 -39 -22 -50 -10 -50 8 0 58 -22 111 -49 l96 -50 20 47 c11
        26 36 83 55 126 119 267 268 778 298 1021 4 28 18 111 31 185 64 347 72 951
        18 1345 -14 104 -27 181 -76 440 -69 373 -210 780 -407 1175 -139 279 -260
        476 -435 709 -39 52 -78 103 -86 115 -66 92 -350 399 -506 547 -140 132 -516
        434 -587 472 -12 7 -42 26 -67 43 -102 70 -353 212 -514 289 -329 159 -660
        279 -981 355 -71 17 -148 35 -170 40 -343 82 -965 124 -1405 95z m-50 -239 c0
        -7 -12 -22 -27 -32 -37 -23 -185 -147 -226 -187 -17 -18 -52 -48 -77 -67 -25
        -19 -47 -37 -50 -40 -9 -10 -91 -73 -127 -97 -129 -87 -289 -133 -588 -169
        -128 -15 -576 -19 -794 -7 l-122 6 63 30 c35 16 113 54 173 84 167 83 462 204
        609 250 45 13 115 36 156 49 193 61 524 130 810 168 63 9 126 17 140 20 50 7
        60 6 60 -8z m-3326 -1858 c11 -133 26 -672 19 -679 -5 -3 -56 -11 -116 -17
        -106 -12 -266 -39 -382 -67 -33 -8 -61 -13 -62 -11 -4 4 90 180 142 268 5 9
        21 36 34 60 64 118 334 506 353 507 3 1 9 -27 12 -61z" />
    </g>
</svg>